<?xml version="1.0" standalone="no"?>
<!DOCTYPE svg PUBLIC "-//W3C//DTD SVG 20010904//EN"
 "http://www.w3.org/TR/2001/REC-SVG-20010904/DTD/svg10.dtd">
<svg version="1.0" xmlns="http://www.w3.org/2000/svg"
 width="1000.000000pt" height="623.000000pt" viewBox="0 0 1000.000000 623.000000"
 preserveAspectRatio="xMidYMid meet">

<g transform="translate(0.000000,623.000000) scale(0.100000,-0.100000)"
fill="#000000" stroke="none">
<path d="M20 3115 l0 -3015 3010 0 3010 0 0 735 0 735 -70 0 -70 0 0 -660 0
-660 -2870 0 -2870 0 0 2865 0 2865 2870 0 2870 0 0 -660 0 -660 70 0 70 0 0
735 0 735 -3010 0 -3010 0 0 -3015z"/>
<path d="M3930 3720 l0 -790 85 0 85 0 0 198 0 197 84 84 84 83 74 -113 c41
-63 123 -189 182 -281 l109 -168 98 0 c55 0 99 2 99 6 0 3 -91 141 -202 306
-112 166 -211 313 -220 328 l-17 26 200 214 200 215 -98 3 -98 3 -79 -83 c-43
-46 -151 -162 -238 -258 -88 -96 -164 -176 -169 -178 -5 -2 -9 204 -9 497 l0
501 -85 0 -85 0 0 -790z"/>
<path d="M7093 4495 c-32 -22 -47 -85 -33 -136 9 -33 18 -43 48 -56 80 -33
152 10 152 92 0 55 -15 90 -47 104 -34 16 -95 14 -120 -4z"/>
<path d="M2120 4226 c0 -175 -14 -196 -135 -196 l-65 0 0 -75 0 -75 90 0 90 0
0 -408 c0 -403 0 -408 23 -452 36 -73 82 -90 239 -90 l128 0 0 75 0 75 -110 0
-110 0 0 400 0 400 120 0 120 0 0 75 0 75 -120 0 -120 0 0 155 0 155 -75 0
-75 0 0 -114z"/>
<path d="M7690 4226 c0 -175 -14 -196 -135 -196 l-65 0 0 -75 0 -75 90 0 90 0
0 -408 c0 -403 0 -408 23 -452 36 -73 82 -90 239 -90 l128 0 0 75 0 75 -110 0
-110 0 0 400 0 400 120 0 120 0 0 75 0 75 -120 0 -120 0 0 155 0 155 -75 0
-75 0 0 -114z"/>
<path d="M3040 4049 c-86 -14 -170 -61 -234 -130 -31 -33 -56 -64 -56 -69 0
-5 21 -29 46 -53 l47 -44 63 63 c78 78 135 99 253 92 165 -10 231 -88 231
-270 l0 -78 -139 0 c-309 0 -447 -49 -516 -185 -27 -52 -30 -68 -29 -144 1
-107 26 -172 91 -232 56 -52 111 -76 202 -89 168 -24 307 34 368 154 25 49 26
50 35 26 48 -129 77 -152 198 -158 l91 -4 -3 73 -3 74 -62 3 -62 3 -3 352 c-4
401 -6 409 -85 497 -57 63 -124 98 -222 116 -86 15 -131 16 -211 3z m350 -724
c0 -124 -11 -157 -69 -207 -54 -46 -125 -68 -220 -68 -100 0 -172 32 -201 91
-24 46 -27 147 -6 187 41 80 110 101 329 102 l167 0 0 -105z"/>
<path d="M5347 4049 c-269 -39 -445 -337 -398 -671 42 -296 216 -467 481 -470
133 -2 220 25 321 98 52 38 128 140 113 152 -16 14 -89 68 -100 75 -6 4 -25
-15 -42 -42 -33 -50 -80 -88 -147 -118 -59 -25 -205 -23 -265 4 -119 54 -190
170 -190 310 l0 53 395 0 395 0 0 88 c-1 279 -153 483 -390 521 -73 12 -91 12
-173 0z m195 -151 c57 -17 131 -87 158 -150 13 -30 25 -83 28 -120 l5 -68
-308 0 -308 0 6 59 c19 215 209 342 419 279z"/>
<path d="M7070 3480 l0 -550 85 0 85 0 0 550 0 550 -85 0 -85 0 0 -550z"/>
<path d="M6190 3580 l0 -90 275 0 275 0 0 90 0 90 -275 0 -275 0 0 -90z"/>
<path d="M2460 2425 c0 -105 14 -127 24 -37 4 31 9 74 12 95 5 33 3 37 -15 37
-20 0 -21 -5 -21 -95z"/>
<path d="M3730 2180 c0 -333 0 -340 20 -340 20 0 20 7 20 340 0 333 0 340 -20
340 -20 0 -20 -7 -20 -340z"/>
<path d="M5340 2404 l0 -115 -26 20 c-18 14 -41 21 -69 21 -36 0 -48 -5 -69
-30 -32 -39 -39 -88 -34 -252 4 -154 16 -189 72 -208 38 -12 79 -5 97 16 15
18 29 18 29 -1 0 -8 9 -15 20 -15 20 0 20 7 20 340 0 333 0 340 -20 340 -19 0
-20 -7 -20 -116z m-26 -125 l26 -20 0 -179 0 -178 -25 -16 c-40 -26 -91 -21
-112 11 -15 23 -18 51 -18 188 0 137 3 165 18 188 22 34 72 37 111 6z"/>
<path d="M2200 2406 l0 -75 -32 -3 c-46 -4 -49 -28 -4 -28 l36 0 0 -208 c0
-243 3 -252 76 -252 32 0 44 4 44 15 0 10 -10 15 -30 15 -19 0 -33 7 -40 19
-6 12 -10 100 -10 215 l0 196 40 0 c29 0 40 4 40 15 0 11 -11 15 -40 15 l-40
0 0 75 c0 68 -2 75 -20 75 -18 0 -20 -7 -20 -74z"/>
<path d="M1920 2430 c0 -33 3 -40 20 -40 17 0 20 7 20 40 0 33 -3 40 -20 40
-17 0 -20 -7 -20 -40z"/>
<path d="M1920 2085 c0 -238 1 -245 20 -245 19 0 20 7 20 245 0 238 -1 245
-20 245 -19 0 -20 -7 -20 -245z"/>
<path d="M2675 2308 c-34 -30 -42 -84 -21 -130 9 -19 48 -63 86 -97 83 -74
104 -109 95 -158 -13 -69 -117 -78 -150 -12 -8 15 -15 37 -15 49 0 22 -7 25
-29 11 -12 -8 -12 -16 3 -54 18 -47 42 -69 88 -80 62 -16 130 24 141 82 12 59
-10 99 -104 190 -75 74 -89 92 -89 119 0 57 58 90 110 62 11 -6 25 -28 31 -50
12 -40 22 -49 34 -30 10 16 -14 78 -38 100 -30 29 -107 27 -142 -2z"/>
<path d="M3352 2320 c-24 -10 -52 -64 -52 -100 0 -13 7 -20 20 -20 14 0 20 7
20 24 0 38 36 76 74 76 47 0 65 -26 73 -102 l6 -66 -70 -36 c-39 -20 -82 -50
-97 -65 -33 -35 -44 -97 -26 -142 27 -65 123 -72 169 -13 l20 25 3 -28 c2 -17
10 -29 21 -31 16 -3 17 11 17 190 0 206 -8 258 -43 283 -24 16 -98 19 -135 5z
m138 -304 c0 -79 -2 -86 -29 -115 -72 -77 -169 4 -117 98 11 19 127 101 143
101 2 0 3 -38 3 -84z"/>
<path d="M3987 2324 c-4 -4 -7 -115 -7 -246 l0 -238 25 0 25 0 2 202 3 202 34
23 c19 13 45 23 57 23 18 0 24 6 24 21 0 19 -4 21 -32 15 -18 -3 -44 -18 -59
-32 l-27 -26 -4 28 c-3 28 -26 43 -41 28z"/>
<path d="M4357 2319 c-43 -25 -52 -66 -52 -234 0 -183 9 -215 72 -241 83 -35
153 9 161 101 4 51 3 55 -17 55 -18 0 -21 -6 -21 -44 0 -60 -24 -88 -74 -88
-21 0 -45 7 -53 15 -17 16 -40 175 -30 201 5 13 24 16 102 16 l95 0 0 70 c0
78 -18 133 -48 149 -26 14 -111 14 -135 0z m109 -27 c23 -15 34 -52 34 -112
l0 -61 -77 3 -78 3 4 60 c5 89 22 115 76 115 17 0 35 -4 41 -8z"/>
<path d="M4759 2301 c-16 -16 -29 -38 -29 -49 0 -11 -3 -28 -6 -37 -5 -13 -2
-16 17 -13 19 2 25 10 27 36 4 40 38 65 84 60 42 -4 58 -34 58 -109 l0 -57
-77 -43 c-95 -54 -117 -82 -117 -149 0 -57 27 -95 75 -105 31 -7 94 18 103 41
9 23 26 16 26 -11 0 -17 5 -25 18 -25 17 0 18 13 15 193 -2 105 -6 206 -9 224
-7 47 -46 73 -106 73 -41 0 -54 -5 -79 -29z m121 -403 c-58 -53 -120 -28 -120
48 0 52 25 84 95 122 l50 27 3 -85 c3 -84 3 -85 -28 -112z"/>
<path d="M5554 2313 c3 -10 30 -127 62 -261 53 -227 55 -244 40 -266 -10 -16
-29 -26 -56 -31 -48 -8 -56 -35 -10 -35 49 0 95 24 108 56 12 32 122 517 122
540 0 23 -30 16 -39 -8 -4 -13 -25 -110 -47 -215 -21 -106 -41 -193 -44 -193
-4 0 -23 80 -44 178 -54 253 -53 252 -77 252 -15 0 -19 -5 -15 -17z"/>
<path d="M6230 2315 c0 -9 25 -123 55 -252 30 -130 55 -244 55 -254 0 -27 -25
-46 -70 -54 -48 -8 -56 -35 -10 -35 45 0 99 26 109 52 7 19 120 512 125 543 0
6 -8 10 -19 10 -18 0 -25 -22 -66 -220 -38 -181 -48 -215 -54 -190 -5 17 -27
115 -49 220 -33 152 -45 190 -59 193 -11 2 -17 -3 -17 -13z"/>
<path d="M6713 2318 c-43 -21 -53 -64 -53 -232 0 -185 9 -218 66 -242 45 -19
99 -11 131 18 34 31 46 108 41 254 -6 178 -27 215 -120 213 -24 0 -53 -5 -65
-11z m116 -37 c13 -13 22 -41 26 -87 10 -87 1 -265 -14 -293 -26 -48 -102 -48
-127 1 -12 24 -15 61 -12 193 3 144 5 165 22 184 24 27 79 28 105 2z"/>
<path d="M7082 2104 l3 -226 29 -25 c35 -30 70 -26 128 12 l38 25 0 -25 c0
-18 5 -25 20 -25 19 0 20 7 20 245 0 238 -1 245 -20 245 -19 0 -20 -7 -20
-204 l0 -205 -34 -26 c-25 -19 -44 -25 -68 -23 -53 5 -58 26 -58 256 0 197 -1
202 -21 202 -20 0 -20 -4 -17 -226z"/>
<path d="M7527 2324 c-4 -4 -7 -115 -7 -246 l0 -238 25 0 25 0 2 202 3 202 34
23 c19 13 45 23 57 23 18 0 24 6 24 21 0 19 -4 21 -32 15 -18 -3 -44 -18 -59
-32 l-27 -26 -4 28 c-3 28 -26 43 -41 28z"/>
<path d="M7895 2318 c-34 -20 -44 -41 -45 -93 0 -50 0 -50 84 -130 93 -89 106
-108 106 -158 0 -44 -28 -69 -75 -69 -45 0 -71 23 -87 74 -12 42 -31 46 -36 7
-4 -36 33 -88 75 -105 78 -33 163 17 163 96 0 58 -17 84 -109 171 -75 71 -81
80 -81 116 0 48 23 73 68 73 36 0 72 -39 72 -77 0 -15 5 -23 13 -20 7 2 11 20
11 43 -2 52 -39 84 -97 84 -23 0 -51 -6 -62 -12z"/>
</g>
</svg>
